<?xml version="1.0" encoding="utf-8"?>
<!-- Generator: Adobe Illustrator 26.4.1, SVG Export Plug-In . SVG Version: 6.00 Build 0)  -->
<svg version="1.1" id="Layer_1" xmlns:sketch="http://www.bohemiancoding.com/sketch/ns"
	 xmlns="http://www.w3.org/2000/svg" xmlns:xlink="http://www.w3.org/1999/xlink" x="0px" y="0px" viewBox="0 0 60 60"
	 style="enable-background:new 0 0 60 60;" xml:space="preserve">
<style type="text/css">
	.st0{fill-rule:evenodd;clip-rule:evenodd;}
</style>
<g id="slices" transform="translate(173.000000, 138.000000)">
</g>
<path class="st0" d="M30,0L4,15v30l26,15l26-15V15L30,0z M20.8,35.8h17.7l-17.7-3.6l0.8-3.3L36.9,32l-13.9-6.6l1.6-3.5L41.5,30
	L40,33.5L39.1,33l-0.7,2.7h0.8v3.5H20.8V35.8z M43.8,43.8H16.2V33.5h3.5v6.9h20.8v-6.9h3.5V43.8z M41.5,30l-15-11.7l1.7-2.2h1.7
	L43.8,27L41.5,30z"/>
</svg>
